<?xml version="1.0" encoding="utf-8"?>
<!-- Generator: Adobe Illustrator 23.0.1, SVG Export Plug-In . SVG Version: 6.00 Build 0)  -->
<svg version="1.1" id="Camada_1" xmlns="http://www.w3.org/2000/svg" xmlns:xlink="http://www.w3.org/1999/xlink" x="0px" y="0px"
	 viewBox="0 0 231 57" style="enable-background:new 0 0 231 57;" xml:space="preserve" width="231" height="57">
<style type="text/css">
	.st0{fill:#ED2D24;}
	.st1{filter:url(#Adobe_OpacityMaskFilter);}
	.st2{fill:url(#SVGID_2_);}
	.st3{mask:url(#SVGID_1_);fill:#F0582A;}
	.st4{fill:#F6901E;}
	.st5{filter:url(#Adobe_OpacityMaskFilter_1_);}
	.st6{fill:url(#SVGID_4_);}
	.st7{mask:url(#SVGID_3_);fill:#F9A51E;}
	.st8{filter:url(#Adobe_OpacityMaskFilter_2_);}
	.st9{fill:url(#SVGID_6_);}
	.st10{mask:url(#SVGID_5_);fill:#F0582A;}
	.st11{filter:url(#Adobe_OpacityMaskFilter_3_);}
	.st12{fill:url(#SVGID_8_);}
	.st13{mask:url(#SVGID_7_);fill:#F9A51E;}
	.st14{fill:#F16122;}
	.st15{filter:url(#Adobe_OpacityMaskFilter_4_);}
	.st16{fill:url(#SVGID_10_);}
	.st17{mask:url(#SVGID_9_);fill:#F16122;}
	.st18{filter:url(#Adobe_OpacityMaskFilter_5_);}
	.st19{fill:url(#SVGID_12_);}
	.st20{mask:url(#SVGID_11_);fill:#F37C20;}
	.st21{filter:url(#Adobe_OpacityMaskFilter_6_);}
	.st22{fill:url(#SVGID_14_);}
	.st23{mask:url(#SVGID_13_);fill:#F37C20;}
	.st24{filter:url(#Adobe_OpacityMaskFilter_7_);}
	.st25{fill:url(#SVGID_16_);}
	.st26{mask:url(#SVGID_15_);fill:#F9A51E;}
	.st27{filter:url(#Adobe_OpacityMaskFilter_8_);}
	.st28{fill:url(#SVGID_18_);}
	.st29{mask:url(#SVGID_17_);fill:#F0582A;}
	.st30{fill:#58595B;}
</style>
<g>
	<polygon class="st0" points="36.8,56 27.4,32 18,56 31,42.5 36.3,56 	"/>
	<defs>
		<filter id="Adobe_OpacityMaskFilter" filterUnits="userSpaceOnUse" x="19.2" y="33.3" width="11.7" height="20.8">
			<feColorMatrix  type="matrix" values="1 0 0 0 0  0 1 0 0 0  0 0 1 0 0  0 0 0 1 0"/>
		</filter>
	</defs>
	<mask maskUnits="userSpaceOnUse" x="19.2" y="33.3" width="11.7" height="20.8" id="SVGID_1_">
		<g class="st1">
			
				<linearGradient id="SVGID_2_" gradientUnits="userSpaceOnUse" x1="-97.9814" y1="160.0612" x2="-97.9814" y2="172.642" gradientTransform="matrix(1 0 0 1 122.9939 -122.6854)">
				<stop  offset="0" style="stop-color:#FFFFFF"/>
				<stop  offset="1" style="stop-color:#000000"/>
			</linearGradient>
			<rect x="19.2" y="33.3" class="st2" width="11.7" height="20.8"/>
		</g>
	</mask>
	<polygon class="st3" points="30.9,42 27.4,33.3 19.2,54.1 30.2,42.7 30.2,42.7 	"/>
	<polygon class="st4" points="18,1 27.4,24.9 36.8,1 23.8,14.5 18.5,1 	"/>
	<defs>
		<filter id="Adobe_OpacityMaskFilter_1_" filterUnits="userSpaceOnUse" x="23.9" y="2.9" width="11.7" height="20.8">
			<feColorMatrix  type="matrix" values="1 0 0 0 0  0 1 0 0 0  0 0 1 0 0  0 0 0 1 0"/>
		</filter>
	</defs>
	<mask maskUnits="userSpaceOnUse" x="23.9" y="2.9" width="11.7" height="20.8" id="SVGID_3_">
		<g class="st5">
			
				<linearGradient id="SVGID_4_" gradientUnits="userSpaceOnUse" x1="-99.8591" y1="184.6966" x2="-99.8591" y2="172.1158" gradientTransform="matrix(1 0 0 1 129.6349 -165.092)">
				<stop  offset="0" style="stop-color:#FFFFFF"/>
				<stop  offset="1" style="stop-color:#000000"/>
			</linearGradient>
			<rect x="23.9" y="2.9" class="st6" width="11.7" height="20.8"/>
		</g>
	</mask>
	<polygon class="st7" points="23.9,14.9 27.4,23.7 35.6,2.9 24.5,14.3 24.6,14.3 	"/>
	<polygon class="st0" points="15.9,55.1 25.1,31 2.5,40.8 20.7,41.1 15.5,54.7 	"/>
	<defs>
		<filter id="Adobe_OpacityMaskFilter_2_" filterUnits="userSpaceOnUse" x="4.6" y="31.9" width="19.6" height="8.8">
			<feColorMatrix  type="matrix" values="1 0 0 0 0  0 1 0 0 0  0 0 1 0 0  0 0 0 1 0"/>
		</filter>
	</defs>
	<mask maskUnits="userSpaceOnUse" x="4.6" y="31.9" width="19.6" height="8.8" id="SVGID_5_">
		<g class="st8">
			
				<linearGradient id="SVGID_6_" gradientUnits="userSpaceOnUse" x1="-84.1285" y1="173.2757" x2="-92.4559" y2="182.1697" gradientTransform="matrix(1 0 0 1 102.6969 -141.4154)">
				<stop  offset="0" style="stop-color:#FFFFFF"/>
				<stop  offset="1" style="stop-color:#000000"/>
			</linearGradient>
			<rect x="4.6" y="31.9" class="st9" width="19.6" height="8.8"/>
		</g>
	</mask>
	<polygon class="st10" points="20.9,40.7 24.2,31.9 4.6,40.4 20,40.7 20,40.7 	"/>
	<polygon class="st4" points="38.9,1.9 29.7,26 52.3,16.2 34.1,15.8 39.3,2.3 	"/>
	<defs>
		<filter id="Adobe_OpacityMaskFilter_3_" filterUnits="userSpaceOnUse" x="30.6" y="16.3" width="19.6" height="8.8">
			<feColorMatrix  type="matrix" values="1 0 0 0 0  0 1 0 0 0  0 0 1 0 0  0 0 0 1 0"/>
		</filter>
	</defs>
	<mask maskUnits="userSpaceOnUse" x="30.6" y="16.3" width="19.6" height="8.8" id="SVGID_7_">
		<g class="st11">
			
				<linearGradient id="SVGID_8_" gradientUnits="userSpaceOnUse" x1="-102.635" y1="188.2709" x2="-94.3148" y2="179.3768" gradientTransform="matrix(1 0 0 1 138.8602 -163.1529)">
				<stop  offset="0" style="stop-color:#FFFFFF"/>
				<stop  offset="1" style="stop-color:#000000"/>
			</linearGradient>
			<rect x="30.6" y="16.3" class="st12" width="19.6" height="8.8"/>
		</g>
	</mask>
	<polygon class="st13" points="33.9,16.3 30.6,25.1 50.2,16.6 34.8,16.3 34.8,16.3 	"/>
	<polygon class="st14" points="1.6,38.6 24.1,28.5 1.6,18.4 14.3,32.4 1.6,38 	"/>
	<polygon class="st14" points="53.2,18.4 30.7,28.5 53.2,38.6 40.5,24.6 53.2,19 	"/>
	<defs>
		<filter id="Adobe_OpacityMaskFilter_4_" filterUnits="userSpaceOnUse" x="31.9" y="24.8" width="19.5" height="12.5">
			<feColorMatrix  type="matrix" values="1 0 0 0 0  0 1 0 0 0  0 0 1 0 0  0 0 0 1 0"/>
		</filter>
	</defs>
	<mask maskUnits="userSpaceOnUse" x="31.9" y="24.8" width="19.5" height="12.5" id="SVGID_9_">
		<g class="st15">
			
				<linearGradient id="SVGID_10_" gradientUnits="userSpaceOnUse" x1="-104.9911" y1="177.2067" x2="-93.2209" y2="177.2067" gradientTransform="matrix(1 0 0 1 140.7073 -146.1728)">
				<stop  offset="0" style="stop-color:#FFFFFF"/>
				<stop  offset="1" style="stop-color:#000000"/>
			</linearGradient>
			<rect x="31.9" y="24.8" class="st16" width="19.5" height="12.5"/>
		</g>
	</mask>
	<polygon class="st17" points="40.1,24.8 31.9,28.5 51.4,37.3 40.7,25.5 40.7,25.5 	"/>
	<defs>
		<filter id="Adobe_OpacityMaskFilter_5_" filterUnits="userSpaceOnUse" x="3.4" y="19.7" width="19.5" height="12.5">
			<feColorMatrix  type="matrix" values="1 0 0 0 0  0 1 0 0 0  0 0 1 0 0  0 0 0 1 0"/>
		</filter>
	</defs>
	<mask maskUnits="userSpaceOnUse" x="3.4" y="19.7" width="19.5" height="12.5" id="SVGID_11_">
		<g class="st18">
			
				<linearGradient id="SVGID_12_" gradientUnits="userSpaceOnUse" x1="-81.9304" y1="179.2122" x2="-93.7006" y2="179.2122" gradientTransform="matrix(1 0 0 1 101.0032 -153.2659)">
				<stop  offset="0" style="stop-color:#FFFFFF"/>
				<stop  offset="1" style="stop-color:#000000"/>
			</linearGradient>
			<rect x="3.4" y="19.7" class="st19" width="19.5" height="12.5"/>
		</g>
	</mask>
	<polygon class="st20" points="14.7,32.2 22.9,28.5 3.4,19.7 14.1,31.5 14.1,31.5 	"/>
	<defs>
		<filter id="Adobe_OpacityMaskFilter_6_" filterUnits="userSpaceOnUse" x="31.9" y="24.8" width="19.5" height="12.5">
			<feColorMatrix  type="matrix" values="1 0 0 0 0  0 1 0 0 0  0 0 1 0 0  0 0 0 1 0"/>
		</filter>
	</defs>
	<mask maskUnits="userSpaceOnUse" x="31.9" y="24.8" width="19.5" height="12.5" id="SVGID_13_">
		<g class="st21">
			
				<linearGradient id="SVGID_14_" gradientUnits="userSpaceOnUse" x1="-104.9911" y1="177.2067" x2="-93.2209" y2="177.2067" gradientTransform="matrix(1 0 0 1 140.7073 -146.1728)">
				<stop  offset="0" style="stop-color:#FFFFFF"/>
				<stop  offset="1" style="stop-color:#000000"/>
			</linearGradient>
			<rect x="31.9" y="24.8" class="st22" width="19.5" height="12.5"/>
		</g>
	</mask>
	<polygon class="st23" points="40.1,24.8 31.9,28.5 51.4,37.3 40.7,25.5 40.7,25.5 	"/>
	<polygon class="st4" points="2.5,16.2 25,26 15.9,1.9 15.6,21.3 2.9,15.8 	"/>
	<defs>
		<filter id="Adobe_OpacityMaskFilter_7_" filterUnits="userSpaceOnUse" x="16" y="4.2" width="8.2" height="21">
			<feColorMatrix  type="matrix" values="1 0 0 0 0  0 1 0 0 0  0 0 1 0 0  0 0 0 1 0"/>
		</filter>
	</defs>
	<mask maskUnits="userSpaceOnUse" x="16" y="4.2" width="8.2" height="21" id="SVGID_15_">
		<g class="st24">
			
				<linearGradient id="SVGID_16_" gradientUnits="userSpaceOnUse" x1="-94.0852" y1="182.4093" x2="-102.4126" y2="173.5224" gradientTransform="matrix(1 0 0 1 118.5395 -163.1191)">
				<stop  offset="0" style="stop-color:#FFFFFF"/>
				<stop  offset="1" style="stop-color:#000000"/>
			</linearGradient>
			<rect x="16" y="4.2" class="st25" width="8.2" height="21"/>
		</g>
	</mask>
	<polygon class="st26" points="16,21.5 24.2,25.1 16.2,4.2 16,20.6 16,20.6 	"/>
	<polygon class="st0" points="52.3,40.8 29.8,31 38.9,55.1 39.2,35.7 51.9,41.2 	"/>
	<defs>
		<filter id="Adobe_OpacityMaskFilter_8_" filterUnits="userSpaceOnUse" x="30.6" y="31.9" width="8.2" height="21">
			<feColorMatrix  type="matrix" values="1 0 0 0 0  0 1 0 0 0  0 0 1 0 0  0 0 0 1 0"/>
		</filter>
	</defs>
	<mask maskUnits="userSpaceOnUse" x="30.6" y="31.9" width="8.2" height="21" id="SVGID_17_">
		<g class="st27">
			
				<linearGradient id="SVGID_18_" gradientUnits="userSpaceOnUse" x1="-108.5616" y1="162.1769" x2="-100.2342" y2="171.0709" gradientTransform="matrix(1 0 0 1 138.8917 -124.4942)">
				<stop  offset="0" style="stop-color:#FFFFFF"/>
				<stop  offset="1" style="stop-color:#000000"/>
			</linearGradient>
			<rect x="30.6" y="31.9" class="st28" width="8.2" height="21"/>
		</g>
	</mask>
	<polygon class="st29" points="38.8,35.5 30.6,31.9 38.5,52.8 38.8,36.4 38.8,36.4 	"/>
</g>
<g>
	<g>
		<polygon class="st30" points="230,37.2 230,32.7 222.6,32.7 222.6,11.6 218.2,11.6 218.2,37.2 		"/>
		<polygon class="st30" points="215.2,37.2 215.2,32.7 206.7,32.7 206.7,26.7 214.8,26.7 214.8,22.2 206.7,22.2 206.7,16.1 
			215.2,16.1 215.2,11.6 202.3,11.6 202.3,37.2 		"/>
		<polygon class="st30" points="199.3,37.2 199.3,32.7 190.9,32.7 190.9,26.7 199,26.7 199,22.2 190.9,22.2 190.9,16.1 199.3,16.1 
			199.3,11.6 186.4,11.6 186.4,37.2 		"/>
		<polygon class="st30" points="182.9,37.2 182.9,11.6 178.4,11.6 178.4,30.2 168.5,11.6 163.4,11.6 163.4,37.2 167.8,37.2 
			167.8,18.6 177.9,37.2 		"/>
		<polygon class="st30" points="160.4,37.2 160.4,32.7 152,32.7 152,26.7 160.1,26.7 160.1,22.2 152,22.2 152,16.1 160.4,16.1 
			160.4,11.6 147.5,11.6 147.5,37.2 		"/>
		<path class="st30" d="M140.5,24.4c0,4.9-3.4,8.6-7.9,8.6c-4.5,0-8.1-3.8-8.1-8.7c0-5,3.5-8.7,8.1-8.7
			C137.1,15.7,140.5,19.5,140.5,24.4 M145,24.4c0-7.3-5.5-13.3-12.3-13.3c-7.1,0-12.7,5.8-12.7,13.3c0,7.4,5.6,13.3,12.6,13.3
			C139.6,37.7,145,31.9,145,24.4z"/>
		<path class="st30" d="M118.1,30.1L118.1,30.1c-2,2.2-3.7,3-6,3c-4.4,0-8.1-4-8.1-8.7c0-4.8,3.4-8.6,8-8.6c2.7,0,4.5,0.9,6.1,3
			c0.5-1.5,1.3-2.9,2.2-4.2c-2.2-2.2-5.2-3.4-8.4-3.4c-6.8,0-12.3,5.9-12.3,13.2c0,7.4,5.6,13.4,12.6,13.4c3.1,0,6-1.2,8.2-3.3
			C119.5,33.1,118.7,31.6,118.1,30.1"/>
		<path class="st30" d="M97.3,29.4c0-3.5-1.3-5.7-6.2-7.7c-2.3-0.9-2.3-0.9-2.7-1.1c-0.9-0.6-1.3-1.4-1.3-2.3c0-1.5,1-2.6,2.5-2.6
			c1.5,0,2.4,1,2.5,2.7h4.6c-0.2-4.5-3.2-7.3-7.1-7.3c-3.9,0-7,3.2-7,7.3c0,3.2,1.8,5.7,5,7c3.2,1.3,3.4,1.4,4.2,2
			c0.7,0.6,1.1,1.6,1.1,2.6c0,1.8-1.3,3.1-3.2,3.1c-2,0-3.1-1-3.2-3.2h-4.6c0.4,4.9,3.7,7.8,7.9,7.8C93.9,37.7,97.3,34.1,97.3,29.4"
			/>
		<path class="st30" d="M71.3,26h-5.1l2.6-7.8L71.3,26z M80.6,37.2L70.5,11.6H67L57,37.2h4.9l2.7-6.6h8.5l2.6,6.6H80.6z"/>
	</g>
	<g>
		<path class="st30" d="M175.9,48.4c0.4,0.3,0.7,0.5,0.9,0.7c0.2,0.1,0.5,0.2,0.7,0.2c0.4,0,0.7-0.1,1-0.4c0.3-0.3,0.4-0.7,0.4-1.1
			c0-0.3-0.1-0.6-0.3-0.9c-0.2-0.2-0.6-0.5-1.1-0.7c-1.1-0.4-1.6-1.1-1.6-2c0-0.6,0.2-1.1,0.6-1.5c0.4-0.4,0.9-0.6,1.4-0.6
			c0.4,0,0.9,0.2,1.4,0.5v1c-0.3-0.3-0.5-0.5-0.7-0.6c-0.2-0.1-0.4-0.2-0.6-0.2c-0.4,0-0.7,0.1-0.9,0.4c-0.2,0.3-0.4,0.6-0.4,0.9
			c0,0.4,0.1,0.6,0.3,0.8c0.2,0.2,0.6,0.4,1.2,0.7c0.3,0.1,0.6,0.3,0.8,0.4c0.2,0.2,0.4,0.4,0.5,0.6c0.1,0.3,0.2,0.6,0.2,1
			c0,0.7-0.2,1.2-0.6,1.7c-0.4,0.5-0.9,0.7-1.5,0.7c-0.5,0-1.1-0.2-1.6-0.6V48.4z M173,42.7c-0.6,0-1,0.3-1.3,0.9
			c-0.3,0.6-0.4,1.5-0.4,2.5c0,1,0.1,1.7,0.4,2.3c0.3,0.6,0.7,0.9,1.2,0.9c0.5,0,0.9-0.3,1.2-0.9c0.3-0.6,0.4-1.4,0.4-2.4
			c0-1.1-0.2-1.9-0.5-2.5C173.8,43,173.4,42.7,173,42.7z M172.9,42c0.7,0,1.3,0.4,1.7,1.1c0.4,0.7,0.7,1.7,0.7,3
			c0,1.2-0.2,2.1-0.7,2.8c-0.4,0.7-1,1.1-1.7,1.1c-0.7,0-1.3-0.3-1.7-1c-0.4-0.7-0.7-1.7-0.7-2.9c0-1.3,0.2-2.2,0.6-3
			C171.6,42.4,172.2,42,172.9,42z M170,49.5c-0.5,0.3-0.9,0.5-1.4,0.5c-0.5,0-0.9-0.2-1.3-0.5c-0.4-0.4-0.6-0.8-0.8-1.5
			c-0.2-0.6-0.3-1.3-0.3-2c0-1.2,0.2-2.1,0.7-2.9c0.4-0.7,1-1.1,1.8-1.1c0.4,0,0.9,0.2,1.3,0.5v0.9c-0.5-0.5-0.9-0.7-1.3-0.7
			c-0.5,0-1,0.3-1.3,0.9c-0.3,0.6-0.5,1.4-0.5,2.5c0,0.9,0.1,1.7,0.4,2.3c0.3,0.6,0.7,0.9,1.2,0.9c0.4,0,0.8-0.2,1.3-0.7V49.5z
			 M164.4,42.1h0.7v7.8h-0.7V42.1z M160.3,42.8v2.9h0.7c0.5,0,0.9-0.1,1.2-0.4c0.3-0.3,0.5-0.7,0.5-1.2c0-0.4-0.1-0.7-0.3-1
			c-0.2-0.2-0.6-0.3-1-0.3H160.3z M159.6,42.1h1.8c0.6,0,1.1,0.2,1.5,0.5c0.4,0.3,0.6,0.8,0.6,1.4c0,0.5-0.1,0.9-0.4,1.2
			c-0.2,0.4-0.6,0.6-1.1,0.8c0.4,0.1,0.6,0.3,0.8,0.5c0.2,0.2,0.3,0.6,0.4,1l0.4,2.3h-0.8l-0.3-1.9c-0.1-0.6-0.3-1-0.5-1.3
			c-0.2-0.3-0.5-0.4-1-0.4h-0.8v3.6h-0.7V42.1z M154.7,42.1h4.1v0.7H157v7.1h-0.7v-7.1h-1.7V42.1z M152.5,39.9h0.8l-1.1,1.6h-0.4
			L152.5,39.9z M150.5,42.1h3.5v0.7h-2.8v2.7h2.7v0.7h-2.7v3.1h2.8v0.7h-3.5V42.1z M146.3,42.1h0.7v7.1h2.7v0.7h-3.4V42.1z
			 M141.6,42.1h3.5v0.7h-2.8v2.7h2.7v0.7h-2.7v3.1h2.8v0.7h-3.5V42.1z M134.4,48.4c0.4,0.3,0.7,0.5,0.9,0.7c0.2,0.1,0.5,0.2,0.7,0.2
			c0.4,0,0.7-0.1,1-0.4c0.3-0.3,0.4-0.7,0.4-1.1c0-0.3-0.1-0.6-0.3-0.9c-0.2-0.2-0.6-0.5-1.1-0.7c-1.1-0.4-1.6-1.1-1.6-2
			c0-0.6,0.2-1.1,0.6-1.5c0.4-0.4,0.9-0.6,1.4-0.6c0.4,0,0.9,0.2,1.4,0.5v1c-0.3-0.3-0.5-0.5-0.7-0.6c-0.2-0.1-0.4-0.2-0.6-0.2
			c-0.4,0-0.7,0.1-0.9,0.4c-0.2,0.3-0.4,0.6-0.4,0.9c0,0.4,0.1,0.6,0.3,0.8c0.2,0.2,0.6,0.4,1.2,0.7c0.3,0.1,0.6,0.3,0.8,0.4
			c0.2,0.2,0.4,0.4,0.5,0.6c0.1,0.3,0.2,0.6,0.2,1c0,0.7-0.2,1.2-0.6,1.7c-0.4,0.5-0.9,0.7-1.5,0.7c-0.5,0-1.1-0.2-1.6-0.6V48.4z
			 M132.7,42.1h0.7v7.8h-0.7V42.1z M129.6,43.1l-0.8,3.5h1.6L129.6,43.1z M129.3,42.1h0.7l2,7.8h-0.8l-0.6-2.7h-1.9l-0.6,2.7h-0.8
			L129.3,42.1z M125.9,42.1h0.7v7.8h-0.7V42.1z M121.7,42.8v2.9h0.7c0.5,0,0.9-0.1,1.2-0.4c0.3-0.3,0.5-0.7,0.5-1.2
			c0-0.4-0.1-0.7-0.3-1c-0.2-0.2-0.6-0.3-1-0.3H121.7z M121,42.1h1.8c0.6,0,1.1,0.2,1.5,0.5c0.4,0.3,0.6,0.8,0.6,1.4
			c0,0.5-0.1,0.9-0.4,1.2c-0.2,0.4-0.6,0.6-1.1,0.8c0.4,0.1,0.6,0.3,0.8,0.5c0.2,0.2,0.3,0.6,0.4,1l0.4,2.3h-0.8l-0.3-1.9
			c-0.1-0.6-0.3-1-0.5-1.3c-0.2-0.3-0.5-0.4-1-0.4h-0.8v3.6H121V42.1z M116.3,42.1h3.5v0.7H117v2.7h2.7v0.7H117v3.1h2.8v0.7h-3.5
			V42.1z M111.4,42.1h4.1v0.7h-1.7v7.1h-0.7v-7.1h-1.7V42.1z M109.5,43.1l-0.8,3.5h1.6L109.5,43.1z M109.1,42.1h0.7l2,7.8h-0.8
			l-0.6-2.7h-1.9l-0.6,2.7h-0.8L109.1,42.1z M102.5,42.1l1.6,4.3l1.6-4.3h0.9v7.8h-0.6v-5l0-1.3c0-0.2,0-0.4,0-0.7
			c-0.1,0.5-0.3,1.1-0.5,1.6l-1.3,3.5l-1.1-3c-0.2-0.6-0.5-1.3-0.7-2.1c0,1.7,0.1,2.6,0.1,2.8v4.1h-0.7v-7.8H102.5z M94.5,42.1H98
			v0.7h-2.8v2.7h2.7v0.7h-2.7v3.1H98v0.7h-3.5V42.1z M87.3,48.4c0.4,0.3,0.7,0.5,0.9,0.7c0.2,0.1,0.5,0.2,0.7,0.2
			c0.4,0,0.7-0.1,1-0.4c0.3-0.3,0.4-0.7,0.4-1.1c0-0.3-0.1-0.6-0.3-0.9c-0.2-0.2-0.6-0.5-1.1-0.7c-1.1-0.4-1.6-1.1-1.6-2
			c0-0.6,0.2-1.1,0.6-1.5c0.4-0.4,0.9-0.6,1.4-0.6c0.4,0,0.9,0.2,1.4,0.5v1c-0.3-0.3-0.5-0.5-0.7-0.6c-0.2-0.1-0.4-0.2-0.6-0.2
			c-0.4,0-0.7,0.1-0.9,0.4c-0.2,0.3-0.4,0.6-0.4,0.9c0,0.4,0.1,0.6,0.3,0.8c0.2,0.2,0.6,0.4,1.2,0.7c0.3,0.1,0.6,0.3,0.8,0.4
			c0.2,0.2,0.4,0.4,0.5,0.6c0.1,0.3,0.2,0.6,0.2,1c0,0.7-0.2,1.2-0.6,1.7C90,49.8,89.5,50,88.9,50c-0.5,0-1.1-0.2-1.6-0.6V48.4z
			 M84.3,42.7c-0.6,0-1,0.3-1.3,0.9c-0.3,0.6-0.4,1.5-0.4,2.5c0,1,0.1,1.7,0.4,2.3c0.3,0.6,0.7,0.9,1.2,0.9c0.5,0,0.9-0.3,1.2-0.9
			c0.3-0.6,0.4-1.4,0.4-2.4c0-1.1-0.2-1.9-0.5-2.5C85.1,43,84.7,42.7,84.3,42.7z M84.2,42c0.7,0,1.3,0.4,1.7,1.1
			c0.4,0.7,0.7,1.7,0.7,3c0,1.2-0.2,2.1-0.7,2.8c-0.4,0.7-1,1.1-1.7,1.1c-0.7,0-1.3-0.3-1.7-1c-0.4-0.7-0.7-1.7-0.7-2.9
			c0-1.3,0.2-2.2,0.6-3C82.9,42.4,83.5,42,84.2,42z M79.9,50v0.6h0.3c0.3,0,0.5,0.1,0.7,0.2c0.2,0.2,0.3,0.4,0.3,0.6
			c0,0.3-0.1,0.5-0.4,0.7c-0.2,0.2-0.5,0.3-0.9,0.3c-0.3,0-0.5,0-0.8-0.1v-0.6c0.3,0.1,0.5,0.2,0.7,0.2c0.2,0,0.3,0,0.5-0.1
			c0.1-0.1,0.2-0.2,0.2-0.3c0-0.1-0.1-0.2-0.2-0.3c-0.1-0.1-0.2-0.1-0.3-0.1h-0.6v-1.2c-0.7-0.2-1.1-0.7-1.4-1.4
			c-0.3-0.7-0.5-1.6-0.5-2.6c0-0.7,0.1-1.4,0.3-2c0.2-0.6,0.5-1.1,0.9-1.5c0.4-0.3,0.8-0.5,1.3-0.5c0.4,0,0.9,0.2,1.3,0.5v0.9
			c-0.5-0.5-0.9-0.7-1.3-0.7c-0.5,0-1,0.3-1.3,0.9c-0.3,0.6-0.5,1.4-0.5,2.5c0,0.9,0.1,1.7,0.4,2.3c0.3,0.6,0.7,0.9,1.2,0.9
			c0.4,0,0.8-0.2,1.3-0.7v0.9C80.8,49.8,80.3,50,79.9,50C80,50,80,50,79.9,50z M75.7,42.1h0.7v7.8h-0.7V42.1z M70.3,42.1h0.8
			l1.6,6.8l1.5-6.8H75l-2,7.8h-0.7L70.3,42.1z M66.8,42.8v2.9h0.7c0.5,0,0.9-0.1,1.2-0.4c0.3-0.3,0.5-0.7,0.5-1.2
			c0-0.4-0.1-0.7-0.3-1c-0.2-0.2-0.6-0.3-1-0.3H66.8z M66.1,42.1h1.8c0.6,0,1.1,0.2,1.5,0.5c0.4,0.3,0.6,0.8,0.6,1.4
			c0,0.5-0.1,0.9-0.4,1.2c-0.2,0.4-0.6,0.6-1.1,0.8c0.4,0.1,0.6,0.3,0.8,0.5c0.2,0.2,0.3,0.6,0.4,1l0.4,2.3h-0.8L69,48
			c-0.1-0.6-0.3-1-0.5-1.3c-0.2-0.3-0.5-0.4-1-0.4h-0.8v3.6h-0.7V42.1z M61.4,42.1h3.5v0.7h-2.8v2.7h2.7v0.7h-2.7v3.1h2.8v0.7h-3.5
			V42.1z M56.6,48.4c0.4,0.3,0.7,0.5,0.9,0.7c0.2,0.1,0.5,0.2,0.7,0.2c0.4,0,0.7-0.1,1-0.4c0.3-0.3,0.4-0.7,0.4-1.1
			c0-0.3-0.1-0.6-0.3-0.9c-0.2-0.2-0.6-0.5-1.1-0.7c-1.1-0.4-1.6-1.1-1.6-2c0-0.6,0.2-1.1,0.6-1.5c0.4-0.4,0.9-0.6,1.4-0.6
			c0.4,0,0.9,0.2,1.4,0.5v1c-0.3-0.3-0.5-0.5-0.7-0.6c-0.2-0.1-0.4-0.2-0.6-0.2c-0.4,0-0.7,0.1-0.9,0.4c-0.2,0.3-0.4,0.6-0.4,0.9
			c0,0.4,0.1,0.6,0.3,0.8c0.2,0.2,0.6,0.4,1.2,0.7c0.3,0.1,0.6,0.3,0.8,0.4c0.2,0.2,0.4,0.4,0.5,0.6c0.1,0.3,0.2,0.6,0.2,1
			c0,0.7-0.2,1.2-0.6,1.7c-0.4,0.5-0.9,0.7-1.5,0.7c-0.5,0-1.1-0.2-1.6-0.6V48.4z"/>
	</g>
</g>
</svg>
